<svg version="1.1" id="Layer_1" xmlns="http://www.w3.org/2000/svg" xmlns:xlink="http://www.w3.org/1999/xlink" x="0px" y="0px"
	 width="100%" viewBox="0 0 608 608" enable-background="new 0 0 608 608" xml:space="preserve">
<path fill="#FFFFFF" opacity="1.000000" stroke="none" 
	d="
M195.880859,55.131363 
	C213.248047,74.709679 231.209839,93.286209 247.599045,113.256218 
	C249.447586,115.508621 251.511581,115.954010 254.169281,115.784920 
	C270.797577,114.726944 287.447266,114.431313 304.099762,114.897316 
	C318.582489,115.302597 332.924744,117.022408 346.888611,120.993256 
	C350.192749,121.932838 352.385773,120.915367 354.518646,118.885986 
	C366.977570,107.031433 380.503601,96.574257 394.816528,87.026596 
	C414.400391,73.962845 435.269318,63.199680 455.895203,51.986820 
	C457.337189,51.202911 458.866089,50.359543 461.002228,51.600418 
	C462.378571,59.240238 460.197815,66.872871 458.778046,74.436699 
	C453.217194,104.062759 442.232300,131.592285 425.627533,156.788834 
	C423.559998,159.926132 423.888336,161.967468 426.388916,164.569092 
	C437.591431,176.224625 448.451447,188.171143 457.127991,201.927277 
	C463.361603,211.810318 468.697876,222.191681 473.732056,232.685928 
	C489.340576,265.223267 516.063171,284.514160 548.894348,296.688416 
	C555.910278,299.290070 563.009766,301.686279 570.149475,303.926208 
	C573.959900,305.121613 575.416626,307.480957 575.409973,311.308136 
	C575.386536,324.698456 568.974670,335.351929 560.319031,344.618073 
	C545.386047,360.604126 526.068848,368.751068 504.954559,372.081482 
	C480.332001,375.965271 455.437836,377.707550 430.550049,379.385986 
	C390.767242,382.068909 352.095123,390.358154 315.613190,406.585632 
	C275.353058,424.493774 249.611557,455.581390 237.235565,497.831421 
	C233.800827,509.557220 231.866623,521.414978 232.279633,533.690979 
	C232.723999,546.898315 235.200607,559.448181 242.406921,570.765869 
	C243.119720,571.885254 243.711731,573.091309 244.257233,574.303284 
	C244.515137,574.876221 244.530411,575.558411 244.648300,576.154175 
	C242.725677,578.076416 240.844604,577.079346 238.989120,576.489685 
	C197.259460,563.228394 161.405975,540.463440 131.974396,508.217865 
	C99.723373,472.883270 78.124100,431.873352 70.994263,384.121185 
	C68.070587,364.539795 67.932983,344.804871 69.401787,324.945190 
	C70.914101,304.497070 75.224945,284.794128 82.148621,265.698883 
	C95.715889,228.280884 118.137863,196.822922 148.138168,170.741165 
	C155.048523,164.733414 162.122650,158.914307 169.101151,152.984558 
	C171.819626,150.674637 172.924820,148.137329 172.073547,144.226944 
	C169.233719,131.181778 168.231430,117.924477 168.733688,104.560783 
	C169.476273,84.801918 174.111099,65.749832 179.282547,46.813534 
	C180.579147,42.065773 182.932693,41.591537 186.418015,45.025181 
	C189.618835,48.178539 192.574646,51.580585 195.880859,55.131363 
M341.899384,133.679642 
	C318.294464,127.137787 294.311340,126.473564 269.547455,127.989426 
	C270.516388,130.867767 272.186249,131.473160 273.400177,132.491119 
	C281.466400,139.255325 289.166992,146.371704 295.044373,155.210480 
	C302.971832,167.132309 307.265747,180.180542 304.826874,194.482986 
	C301.289429,215.228088 287.339508,225.630920 267.739441,229.963638 
	C256.958160,232.346909 245.913895,232.141129 235.055771,233.654526 
	C214.635513,236.500626 195.259293,242.957794 176.343597,250.949982 
	C174.366730,251.785248 172.296967,252.454941 171.051926,254.508438 
	C171.375336,254.943527 171.580551,255.484818 171.965836,255.693146 
	C173.867416,256.721405 175.777512,257.750732 177.755142,258.619019 
	C202.014511,269.270477 216.267685,288.160492 222.272980,313.483765 
	C227.068085,333.703888 225.391800,354.173279 222.848557,374.477478 
	C220.726105,391.422150 217.626434,408.244934 214.913025,425.114197 
	C214.618561,426.944977 214.329727,428.648895 215.839951,429.983978 
	C217.215790,429.607422 217.520432,428.588013 218.033295,427.762421 
	C230.965775,406.943695 247.577469,389.614563 267.790955,375.802948 
	C298.641418,354.723236 332.303619,342.644104 370.167023,342.789703 
	C392.869385,342.877014 415.323242,344.206512 437.612427,348.674866 
	C447.523956,350.661865 457.608948,351.814545 467.638153,353.177124 
	C486.515991,355.741913 505.414062,356.719666 524.209412,352.592651 
	C535.522827,350.108459 545.648987,345.387360 553.049377,335.987366 
	C555.404663,332.995697 554.946655,330.806854 551.390625,329.436279 
	C548.419556,328.291168 545.523987,326.991211 543.005310,325.048340 
	C539.275757,322.171387 539.402283,318.975250 543.113403,316.082184 
	C544.460327,315.032104 546.598145,314.694794 546.824036,311.865143 
	C538.680908,307.711090 530.308655,303.665619 522.145691,299.234619 
	C495.550842,284.798248 474.326477,265.205109 461.394989,237.189438 
	C453.445374,219.966843 444.578156,203.294388 431.858337,188.742157 
	C407.720001,161.126526 378.197266,142.788376 341.899384,133.679642 
M167.023361,262.539093 
	C164.545502,261.170135 161.983902,259.930908 159.610916,258.399414 
	C156.619446,256.468781 156.452164,254.753754 159.761368,252.496216 
	C175.540451,241.731674 192.219696,232.882660 210.589111,227.372101 
	C213.665451,226.449249 216.866241,225.522385 219.576096,222.733368 
	C212.576477,217.317215 206.261795,211.696899 200.730530,205.245667 
	C191.509430,194.490936 185.192856,182.062271 179.688385,169.143829 
	C177.457108,163.907242 177.038086,163.905655 172.261200,167.207397 
	C154.259872,179.649704 139.148544,195.149673 126.022392,212.452209 
	C97.689240,249.800217 81.947624,291.627838 80.896034,338.982117 
	C80.236717,368.671722 83.745697,397.496246 94.450996,425.144775 
	C114.412239,476.698547 148.413330,516.493164 196.409058,544.087341 
	C203.076294,547.920532 210.054596,551.364014 217.481277,553.928162 
	C217.722946,552.935791 217.929626,552.587952 217.849854,552.327942 
	C217.509109,551.217224 217.130600,550.112854 216.682358,549.041138 
	C208.878983,530.383606 203.073242,511.194092 201.559891,490.915436 
	C199.460129,462.779083 199.783966,434.660675 205.388199,406.952667 
	C210.486191,381.747650 213.973938,356.510529 212.986191,330.740082 
	C212.617935,321.132111 210.657150,311.903625 206.961380,303.113495 
	C199.173294,284.590240 185.344360,271.831421 167.023361,262.539093 
M200.217941,126.303970 
	C206.210220,142.068161 212.956573,157.458038 223.413025,170.879059 
	C231.376190,181.099945 241.453796,188.070938 254.564514,189.885986 
	C263.509491,191.124313 266.642853,187.494339 264.179810,178.578400 
	C260.835114,166.471024 255.930084,154.973953 249.187439,144.376083 
	C233.145218,119.161484 214.815781,95.658279 195.162216,73.175240 
	C194.066162,71.921379 193.301865,69.879486 190.849792,70.290291 
	C190.860519,89.265091 194.480515,107.566818 200.217941,126.303970 
z"/>
<path fill="#FFFFFF" opacity="1.000000" stroke="none" 
	d="
M436.549011,272.509766 
	C438.128754,274.892151 439.605591,276.918030 440.845551,279.079834 
	C443.325653,283.403748 442.335297,285.389771 437.421661,285.293610 
	C429.954376,285.147552 422.486023,284.729248 415.033813,284.203857 
	C399.663147,283.120270 384.770508,279.966187 370.772675,273.295654 
	C358.126068,267.269043 345.940857,260.454407 335.019379,251.591476 
	C330.599487,248.004715 330.702240,246.433411 335.632904,243.565201 
	C350.548737,234.888565 366.488159,230.058411 383.793762,233.183792 
	C400.973297,236.286377 414.905914,245.435211 426.110016,258.687683 
	C429.754395,262.998260 432.942261,267.694763 436.549011,272.509766 
z"/>
</svg>