<svg xmlns="http://www.w3.org/2000/svg" width="520" height="515" viewBox="0 0 520 515">
<g>
<path d="M 210.19 486.00 C204.56,493.34 194.67,503.33 193.84,502.51 C193.54,502.21 194.86,497.81 196.77,492.73 C202.39,477.81 204.28,466.69 203.70,452.00 C203.35,443.12 202.64,437.90 201.24,434.00 C193.98,413.67 180.95,400.27 162.85,394.53 C155.74,392.27 135.81,389.05 119.50,387.52 C100.19,385.72 86.13,380.15 77.57,370.90 C74.51,367.59 72.00,364.45 72.00,363.92 C72.00,363.33 74.99,363.20 79.75,363.59 C91.80,364.58 118.08,360.50 115.37,358.06 C114.89,357.62 111.12,356.02 107.00,354.49 C94.11,349.70 81.00,342.47 81.00,340.15 C81.00,339.74 83.63,338.86 86.84,338.19 C95.44,336.42 103.00,334.04 103.00,333.11 C103.00,332.66 100.19,330.32 96.75,327.92 C87.57,321.49 75.97,309.60 70.13,300.62 C67.31,296.29 65.00,292.29 65.00,291.74 C65.00,291.13 66.85,290.97 69.75,291.34 C79.81,292.59 92.00,293.24 92.00,292.52 C92.00,292.11 89.84,289.01 87.19,285.63 C79.49,275.81 72.24,264.62 67.51,255.23 C62.80,245.88 57.35,230.32 58.41,229.26 C58.77,228.90 61.63,229.87 64.78,231.42 C75.77,236.82 106.86,246.80 108.27,245.39 C108.50,245.17 104.32,240.60 98.99,235.24 C89.43,225.64 83.13,217.53 84.31,216.36 C84.64,216.03 89.09,216.93 94.21,218.36 C107.09,221.97 131.61,226.00 140.68,226.00 L 148.24 226.00 L 146.65 223.75 C130.68,201.14 116.74,168.64 111.52,141.82 C104.54,106.02 106.63,73.38 117.92,41.54 C120.96,32.99 126.15,22.00 127.16,22.00 C127.63,22.00 131.28,24.74 135.26,28.09 C146.08,37.19 154.35,43.24 177.30,58.86 C207.10,79.12 216.87,86.78 231.05,100.95 C244.33,114.24 254.60,128.18 261.09,141.73 C262.96,145.65 264.98,149.07 265.57,149.33 C266.16,149.59 270.44,148.69 275.07,147.34 C279.71,145.99 288.90,143.63 295.50,142.11 L 307.50 139.33 L 307.81 133.92 C308.80,116.70 299.62,82.27 285.70,51.00 C285.34,50.18 284.99,49.39 284.66,48.65 C281.43,41.44 279.89,37.99 280.95,36.72 C281.92,35.57 285.08,36.25 291.15,37.56 C291.83,37.71 292.55,37.86 293.30,38.03 C326.88,45.20 358.77,56.17 376.24,66.56 C392.65,76.33 401.85,85.25 407.66,97.04 C416.79,115.59 428.37,152.25 433.60,179.17 L 435.28 187.84 L 442.11 193.96 C453.25,203.93 461.11,215.45 464.58,226.90 C466.45,233.05 466.37,246.77 464.42,254.36 C463.55,257.74 461.46,262.98 459.76,266.00 C457.31,270.36 456.54,273.16 456.04,279.50 C455.50,286.40 454.71,288.95 450.30,298.00 C444.65,309.59 442.44,318.30 441.40,333.08 L 440.73 342.59 L 448.52 349.77 C453.89,354.71 457.81,357.44 461.13,358.54 C467.15,360.54 471.00,364.87 471.00,369.64 C471.00,373.84 469.76,376.45 465.74,380.70 C462.77,383.83 462.74,383.99 463.99,388.47 C465.67,394.45 464.83,404.47 462.22,409.53 C458.72,416.35 454.82,419.27 448.53,419.79 C445.47,420.04 441.75,419.73 440.19,419.08 C438.17,418.24 436.59,418.21 434.62,418.95 C433.11,419.53 428.77,420.29 424.98,420.64 C418.96,421.20 417.74,421.67 415.37,424.32 L 412.66 427.36 L 415.08 428.89 C419.29,431.55 424.93,437.94 427.39,442.80 C430.86,449.68 431.46,454.91 429.54,461.50 C425.37,475.87 409.67,481.41 388.50,476.00 C378.56,473.46 373.63,471.18 355.03,460.52 C346.73,455.76 339.16,452.01 338.22,452.19 C336.05,452.59 328.49,467.46 327.06,474.15 C325.57,481.08 325.74,492.82 327.40,498.34 C328.17,500.90 328.44,503.00 327.99,503.00 C325.42,503.00 318.26,490.85 315.91,482.50 C314.35,476.95 314.01,457.93 315.31,448.85 L 316.12 443.19 L 311.01 442.10 C308.20,441.49 302.10,441.00 297.45,441.00 C292.80,441.00 289.00,440.61 289.00,440.14 C289.00,438.97 296.24,436.29 303.00,434.94 C306.02,434.33 312.84,433.84 318.14,433.84 C334.87,433.84 347.84,438.64 371.88,453.72 C390.91,465.66 398.97,467.97 408.50,464.24 C415.03,461.67 418.00,457.47 418.00,450.79 C418.00,443.35 414.97,439.01 413.59,444.48 C412.86,447.41 408.36,450.00 404.02,450.00 C396.75,450.00 381.70,442.76 368.50,432.92 C355.88,423.51 345.29,419.24 324.00,414.98 C297.06,409.59 286.92,404.96 271.86,391.17 C268.76,388.32 265.91,386.00 265.53,386.00 C264.37,386.00 266.07,392.21 268.67,397.50 C270.03,400.25 272.94,404.36 275.16,406.63 C277.37,408.91 278.74,411.04 278.20,411.38 C277.65,411.71 273.64,410.20 269.27,408.01 C255.86,401.31 247.49,390.45 244.90,376.42 C239.41,346.74 267.64,322.20 297.18,330.96 C304.15,333.03 312.99,340.14 326.24,354.34 C353.31,383.36 369.94,399.09 379.55,404.78 C391.88,412.08 401.92,415.14 414.00,415.28 C421.97,415.38 424.18,415.04 427.68,413.21 C432.51,410.69 435.00,407.59 435.00,404.11 C435.00,398.34 421.17,389.35 401.15,382.09 C390.94,378.39 373.35,369.21 366.25,363.88 C363.37,361.71 360.22,359.64 359.26,359.27 C357.65,358.65 357.66,358.84 359.41,361.55 C360.45,363.17 362.62,366.19 364.24,368.25 C367.99,373.05 366.16,373.11 358.98,368.43 C352.14,363.97 342.68,354.79 334.82,345.00 C323.12,330.41 313.83,322.06 303.30,316.64 C298.94,314.41 297.66,314.49 298.96,316.93 C300.88,320.51 300.23,320.86 292.75,320.34 C287.17,319.96 281.69,320.58 269.00,323.01 C240.80,328.42 223.08,328.11 209.19,321.97 C206.72,320.87 204.45,320.22 204.15,320.51 C203.06,321.61 218.69,335.66 224.17,338.50 C227.30,340.11 229.61,341.82 229.32,342.30 C228.71,343.28 214.22,342.38 206.00,340.85 C187.21,337.35 169.18,328.86 154.79,316.73 C152.15,314.50 149.73,312.94 149.40,313.26 C149.08,313.58 150.76,317.58 153.14,322.15 C161.17,337.59 175.70,349.87 192.25,355.21 C195.96,356.41 199.00,357.76 199.00,358.20 C199.00,359.63 184.83,359.04 171.50,357.06 C163.49,355.87 154.47,353.73 148.00,351.48 C128.24,344.63 125.75,344.02 117.69,344.01 C112.80,344.00 110.11,344.37 110.49,344.99 C112.02,347.46 134.13,358.00 137.80,358.00 C140.93,358.00 137.98,360.73 131.21,364.10 C122.90,368.24 111.59,371.00 102.97,371.00 C99.69,371.00 97.00,371.41 97.00,371.91 C97.00,372.41 99.81,373.80 103.25,375.00 C108.49,376.84 112.99,377.34 131.00,378.08 C171.68,379.77 184.04,381.68 195.99,388.10 C217.86,399.86 230.29,429.70 224.41,456.30 C222.37,465.53 216.53,477.73 210.19,486.00 ZM 389.99 365.24 C402.28,371.36 404.00,371.88 404.00,369.45 C404.00,366.34 407.16,361.93 411.22,359.36 C414.76,357.13 417.18,356.58 427.44,355.71 C434.07,355.15 439.70,354.53 439.94,354.33 C440.18,354.12 438.55,352.05 436.33,349.73 C426.67,339.65 418.98,327.22 414.04,313.73 C405.32,289.89 407.22,262.93 419.26,239.65 C422.98,232.48 432.05,221.00 434.02,221.00 C434.47,221.00 435.32,223.26 435.91,226.01 C436.50,228.77 437.67,232.67 438.51,234.67 L 440.03 238.31 L 444.69 231.02 L 449.35 223.73 L 447.03 219.34 C443.98,213.60 434.67,203.07 425.69,195.21 C408.66,180.30 376.89,162.19 360.36,157.96 C348.12,154.83 316.21,155.69 302.50,159.51 C299.75,160.28 293.45,161.66 288.50,162.57 C283.55,163.49 277.81,164.65 275.75,165.16 L 272.00 166.08 L 272.00 174.37 C272.00,183.23 270.18,194.63 268.98,193.30 C268.58,192.86 266.99,188.68 265.46,184.00 C258.46,162.68 248.30,146.40 230.59,128.11 C218.36,115.49 206.29,105.98 180.85,88.94 C169.11,81.08 153.27,70.17 145.67,64.71 C138.06,59.24 131.46,55.16 131.01,55.63 C130.55,56.11 128.96,61.45 127.46,67.50 C123.79,82.30 122.87,108.76 125.44,125.50 C130.96,161.54 148.61,204.83 172.22,240.25 C175.43,245.06 177.48,248.98 176.78,248.96 C176.07,248.94 173.02,247.38 170.00,245.49 C158.57,238.36 158.38,238.31 146.00,238.20 C139.68,238.15 131.01,237.49 126.75,236.74 C122.49,235.98 119.00,235.66 119.00,236.02 C119.00,236.87 131.48,248.79 135.96,252.23 L 139.43 254.89 L 136.52 255.99 C131.88,257.76 119.47,259.01 112.71,258.40 C107.04,257.88 84.43,253.49 81.31,252.29 C79.02,251.41 79.86,253.38 85.66,262.55 C93.06,274.26 101.06,283.99 110.57,292.87 C114.80,296.83 118.02,300.31 117.71,300.62 C116.39,301.94 108.81,302.95 100.03,302.98 L 90.56 303.00 L 97.03 309.55 C104.11,316.72 115.66,324.79 127.10,330.55 C135.67,334.86 152.01,341.32 152.68,340.65 C152.93,340.40 151.53,337.97 149.58,335.24 C142.74,325.72 138.90,314.31 137.49,299.31 C137.11,295.35 137.10,291.64 137.46,291.06 C137.84,290.45 141.84,293.77 146.81,298.80 C156.47,308.58 167.67,316.83 179.00,322.51 C185.37,325.71 196.15,330.00 197.81,330.00 C198.08,330.00 195.82,327.40 192.78,324.21 C189.16,320.41 185.88,315.52 183.24,309.96 C176.54,295.87 176.76,292.84 184.00,299.38 C188.82,303.74 200.82,310.74 207.47,313.08 C214.12,315.41 223.85,316.99 231.50,316.97 C239.69,316.95 275.61,311.73 276.98,310.36 C277.53,309.81 272.33,304.91 267.44,301.37 C265.82,300.19 264.78,298.94 265.12,298.58 C265.47,298.22 269.52,297.67 274.12,297.35 C293.46,296.05 312.23,304.97 330.47,324.14 C335.11,329.01 339.15,333.00 339.45,333.00 C339.75,333.00 340.00,330.75 340.00,328.00 C340.00,325.25 340.34,323.01 340.75,323.03 C341.16,323.04 342.62,324.95 344.00,327.26 C347.54,333.21 364.29,349.87 371.99,355.10 C375.55,357.52 383.65,362.08 389.99,365.24 ZM 198.64 229.69 C200.05,232.68 201.01,235.33 200.76,235.57 C199.66,236.67 187.84,227.64 181.69,220.99 C158.97,196.42 142.88,157.45 137.54,114.03 C136.69,107.17 136.00,101.21 136.00,100.78 C136.00,98.59 138.19,100.65 141.89,106.34 C144.16,109.82 147.20,113.76 148.64,115.09 L 151.27 117.50 L 150.53 113.50 C149.06,105.46 148.04,97.42 148.07,94.00 L 148.11 90.50 L 150.80 93.86 C152.29,95.70 155.87,100.16 158.77,103.76 C161.67,107.37 170.96,117.56 179.40,126.41 C187.84,135.26 196.05,144.07 197.63,146.00 C199.21,147.93 201.29,150.38 202.27,151.46 C206.02,155.61 215.41,170.44 219.25,178.26 C232.21,204.70 230.49,221.23 215.12,217.93 C209.43,216.71 200.20,211.06 195.05,205.63 C193.16,203.63 191.20,202.00 190.69,202.00 C188.78,202.00 193.78,219.42 198.64,229.69 ZM 396.45 338.25 C399.81,343.43 396.27,341.00 388.15,332.53 C369.60,313.21 361.09,292.88 357.99,260.50 C356.27,242.53 354.53,234.79 350.42,226.98 C348.40,223.14 346.36,220.00 345.88,220.00 C345.39,220.00 345.00,225.62 345.00,232.50 C345.00,239.65 344.60,245.00 344.06,245.00 C343.54,245.00 341.65,242.25 339.86,238.89 C333.05,226.10 323.30,218.53 310.46,216.02 C303.66,214.70 292.18,214.98 295.50,216.40 C309.43,222.33 310.52,223.34 304.06,224.37 C301.89,224.72 298.85,225.49 297.31,226.09 L 294.50 227.17 L 299.29 229.62 C304.13,232.11 304.72,234.00 300.65,234.00 C295.90,234.00 279.96,239.43 268.12,245.08 C254.32,251.66 243.20,258.89 232.00,268.54 C227.88,272.09 222.16,275.98 219.29,277.17 C216.43,278.36 214.32,279.71 214.61,280.18 C215.34,281.36 221.31,283.84 229.00,286.15 C233.60,287.54 238.66,288.13 246.31,288.19 L 257.12 288.27 L 254.42 291.08 C250.94,294.71 239.05,300.50 232.00,301.99 C225.64,303.34 211.27,303.02 214.50,301.60 C215.60,301.12 218.52,299.85 221.00,298.78 L 225.50 296.83 L 218.44 295.01 C204.23,291.34 189.85,283.60 181.70,275.22 L 177.89 271.31 L 186.97 270.66 C191.96,270.31 198.17,269.51 200.77,268.90 C209.21,266.89 221.27,260.33 232.30,251.74 C246.18,240.94 256.81,234.55 267.75,230.43 C276.46,227.16 276.49,227.14 273.50,225.97 C271.85,225.32 266.82,224.49 262.31,224.12 C257.81,223.76 253.84,223.18 253.50,222.84 C251.98,221.32 273.66,210.12 286.00,206.05 C298.13,202.05 315.95,202.34 324.33,206.67 C325.90,207.48 327.43,207.90 327.73,207.60 C328.47,206.87 322.31,196.77 318.17,191.91 L 314.84 188.00 L 318.33 188.00 C322.79,188.00 334.59,191.99 340.73,195.57 C348.63,200.17 356.46,208.98 360.88,218.24 C366.12,229.22 368.04,238.51 368.73,256.22 C369.04,264.31 369.61,270.74 369.98,270.51 C370.35,270.28 371.48,267.37 372.49,264.05 C373.49,260.72 374.70,258.00 375.16,258.00 C375.62,258.00 376.00,260.36 376.00,263.25 C376.02,288.19 383.08,317.87 392.36,332.00 C393.63,333.92 395.46,336.74 396.45,338.25 ZM 408.18 164.58 C414.04,169.30 415.00,169.71 415.00,167.51 C415.00,162.71 405.10,131.94 399.24,118.50 C389.32,95.78 380.00,86.57 354.64,74.45 C340.30,67.60 317.27,60.08 313.98,61.17 C313.34,61.39 314.08,63.74 315.82,67.02 C320.24,75.32 327.66,94.35 333.30,111.86 C335.30,118.08 336.00,115.22 336.01,100.67 C336.03,88.85 336.57,84.00 337.87,84.00 C338.71,84.00 345.07,100.12 349.04,112.33 C350.80,117.75 352.62,121.78 353.09,121.31 C353.56,120.84 354.25,117.19 354.62,113.19 C355.02,108.85 355.71,106.07 356.34,106.28 C357.42,106.64 364.25,125.65 367.31,136.81 C368.81,142.29 369.44,143.26 372.10,144.19 C377.14,145.94 392.72,153.74 393.41,154.85 C393.76,155.42 396.03,156.87 398.46,158.08 C400.88,159.30 405.26,162.22 408.18,164.58 ZM 391.39 439.09 C394.20,440.10 397.78,440.94 399.34,440.96 C402.12,441.00 402.16,440.92 401.47,436.75 C400.56,431.24 400.65,431.34 396.30,430.53 C391.98,429.72 380.56,424.72 379.64,423.23 C379.30,422.67 383.06,423.52 388.01,425.11 C392.95,426.70 397.56,428.00 398.25,428.00 C398.94,427.99 400.82,426.93 402.44,425.64 L 405.37 423.29 L 401.66 422.60 C386.29,419.71 365.27,408.63 352.19,396.51 C348.72,393.30 341.78,385.68 336.77,379.58 C319.28,358.31 302.43,343.00 296.49,343.00 C294.76,343.00 292.59,347.42 291.13,353.90 C290.31,357.57 290.52,358.44 293.21,362.50 C294.86,364.99 300.30,370.84 305.30,375.51 C310.30,380.18 313.94,384.00 313.38,384.00 C312.24,384.00 300.37,376.01 292.26,369.79 C288.42,366.84 286.42,365.93 284.74,366.35 C282.12,367.01 274.00,373.66 274.00,375.14 C274.00,376.89 284.36,387.15 290.00,390.99 C301.75,398.97 309.28,402.00 326.42,405.62 C339.44,408.38 351.90,412.57 358.36,416.38 C360.64,417.71 365.88,421.79 370.00,425.44 C378.43,432.90 383.92,436.40 391.39,439.09 ZM 424.71 319.25 C426.12,322.41 427.60,325.00 428.00,325.00 C428.39,325.00 428.98,322.52 429.29,319.50 C429.62,316.24 431.28,311.04 433.35,306.75 C435.27,302.77 436.72,299.39 436.58,299.24 C436.43,299.10 434.39,299.66 432.03,300.49 C429.68,301.32 426.63,302.00 425.26,302.00 C422.94,302.00 422.82,301.75 423.46,298.35 C424.47,293.00 426.30,290.50 436.97,280.00 C448.05,269.09 451.73,262.69 452.66,252.73 C453.14,247.56 452.92,246.11 451.36,244.19 C450.13,242.68 448.90,242.10 447.79,242.53 C445.69,243.33 441.50,248.77 437.87,255.41 L 435.10 260.48 L 433.64 256.99 C432.84,255.07 431.50,250.20 430.67,246.16 C429.83,242.12 428.93,238.60 428.67,238.34 C428.05,237.72 422.68,251.70 420.35,260.00 C418.92,265.13 418.53,270.09 418.53,283.50 C418.53,301.81 419.54,307.63 424.71,319.25 ZM 328.73 283.83 C333.92,291.71 338.02,298.31 337.83,298.51 C337.63,298.70 334.33,296.87 330.49,294.43 C326.64,291.99 318.77,288.15 313.00,285.88 C298.69,280.27 297.44,279.58 290.00,273.06 C286.42,269.93 282.05,266.31 280.27,265.01 C276.29,262.11 276.87,261.24 285.26,257.44 C296.90,252.17 305.44,254.14 314.50,264.20 C317.13,267.12 323.53,275.95 328.73,283.83 ZM 449.00 385.41 C449.00,386.90 455.39,381.43 458.75,377.07 C460.74,374.48 462.00,371.69 462.00,369.87 C462.00,367.39 461.38,366.63 458.25,365.27 C450.81,362.04 420.00,362.56 420.00,365.91 C420.00,366.37 425.06,366.96 431.25,367.21 C448.99,367.95 454.02,371.41 450.56,380.49 C449.70,382.73 449.00,384.95 449.00,385.41 ZM 443.37 409.75 C441.99,414.90 451.00,410.89 453.99,405.02 C455.75,401.57 456.81,394.00 455.54,394.00 C455.29,394.00 452.59,395.86 449.54,398.14 C445.31,401.31 444.00,402.91 443.99,404.89 C443.98,406.33 443.70,408.51 443.37,409.75 Z" fill="rgb(17,10,5)"/>
<path d="M 0.00 0.00 L 520.00 0.00 L 520.00 515.00 L 0.00 515.00 ZM 360.00 514.66 C360.00,514.47 355.29,510.59 349.53,506.03 C341.57,499.72 338.79,496.90 337.90,494.21 C335.53,487.00 338.88,467.00 342.47,467.00 C343.15,467.00 347.72,469.32 352.61,472.15 C375.76,485.56 387.06,489.40 403.55,489.46 C414.34,489.50 414.78,489.41 422.17,485.76 C430.47,481.66 435.06,476.98 439.11,468.50 C441.06,464.42 441.49,461.94 441.47,455.00 C441.45,447.55 441.05,445.66 438.23,439.65 C436.46,435.88 435.25,432.41 435.54,431.93 C435.84,431.46 439.55,431.34 443.80,431.66 C453.56,432.42 459.83,430.03 466.32,423.09 C472.73,416.23 475.30,408.89 475.78,396.00 C476.05,388.95 476.63,384.99 477.56,383.95 C479.82,381.43 482.00,374.09 481.98,369.12 C481.93,359.70 476.75,353.06 465.50,348.00 C459.93,345.50 452.00,338.44 452.00,335.99 C452.00,333.84 455.00,315.16 455.63,313.38 C456.00,312.35 458.31,307.23 460.77,302.00 C463.85,295.48 465.70,289.83 466.67,284.00 C467.44,279.33 469.16,273.02 470.48,270.00 C474.48,260.79 476.07,255.27 476.95,247.39 C477.82,239.62 476.89,228.27 474.86,222.00 C471.24,210.82 461.91,196.92 451.53,187.25 C447.94,183.90 445.00,180.34 444.99,179.33 C444.98,175.40 434.86,137.72 430.02,123.59 C419.67,93.36 415.04,84.33 404.66,74.09 C382.38,52.09 342.15,35.93 278.68,23.49 C268.33,21.46 259.66,20.01 259.40,20.26 C259.15,20.52 262.81,28.45 267.53,37.89 C281.72,66.26 293.29,99.29 296.12,119.57 C297.13,126.74 297.09,128.32 295.91,129.45 C294.66,130.64 275.29,136.00 272.25,136.00 C271.61,136.00 269.88,133.86 268.41,131.25 C251.57,101.36 231.59,81.94 186.25,51.34 C161.40,34.57 147.60,24.15 135.60,13.11 C130.15,8.10 125.10,4.00 124.38,4.00 C123.08,4.00 114.64,20.52 109.61,32.91 C95.13,68.58 92.68,113.52 103.00,154.00 C107.32,170.92 115.32,191.64 123.03,205.87 C124.73,209.01 125.64,211.76 125.14,212.26 C124.28,213.12 115.15,211.67 101.56,208.49 C97.75,207.60 88.07,204.60 80.06,201.82 C72.05,199.04 64.19,196.53 62.59,196.25 L 59.69 195.73 L 64.49 204.61 C67.13,209.50 70.35,215.34 71.65,217.59 C72.94,219.83 73.72,221.95 73.38,222.29 C72.64,223.03 66.11,219.80 54.58,212.99 C44.71,207.16 42.58,206.73 43.41,210.75 C43.73,212.26 44.91,218.45 46.04,224.50 C49.36,242.32 54.00,254.59 63.39,270.41 C65.97,274.75 67.73,278.65 67.29,279.06 C66.86,279.47 62.45,279.19 57.51,278.44 C52.56,277.70 48.20,277.41 47.83,277.79 C46.79,278.87 56.35,299.46 61.46,307.15 C63.95,310.90 68.49,316.91 71.54,320.50 C74.59,324.10 76.85,327.43 76.56,327.90 C76.27,328.37 72.43,329.31 68.02,330.00 C63.44,330.71 60.01,331.73 60.02,332.37 C60.03,332.99 63.38,337.33 67.47,342.00 C71.55,346.67 74.52,350.87 74.07,351.32 C73.63,351.77 69.06,351.67 63.93,351.10 C58.81,350.53 54.38,350.28 54.11,350.56 C53.83,350.84 56.06,356.10 59.05,362.25 C68.55,381.75 80.28,391.32 100.29,395.92 C108.02,397.70 112.89,398.39 136.00,401.01 C157.43,403.43 167.23,406.91 176.75,415.47 C183.24,421.30 188.17,429.37 191.02,438.82 C192.95,445.20 193.17,447.70 192.73,458.32 C192.22,470.82 190.92,477.07 186.20,489.80 C183.60,496.82 183.14,497.39 174.00,504.73 C168.77,508.93 163.84,512.95 163.04,513.68 C161.82,514.77 178.54,515.00 260.79,515.00 C315.35,515.00 360.00,514.85 360.00,514.66 Z" fill="none"/>
<path d="M 389.99 365.24 C383.65,362.08 375.55,357.52 371.99,355.10 C364.29,349.87 347.54,333.21 344.00,327.26 C342.62,324.95 341.16,323.04 340.75,323.03 C340.34,323.01 340.00,325.25 340.00,328.00 C340.00,330.75 339.75,333.00 339.45,333.00 C339.15,333.00 335.11,329.01 330.47,324.14 C312.23,304.97 293.46,296.05 274.12,297.35 C269.52,297.67 265.47,298.22 265.12,298.58 C264.78,298.94 265.82,300.19 267.44,301.37 C272.33,304.91 277.53,309.81 276.98,310.36 C275.61,311.73 239.69,316.95 231.50,316.97 C223.85,316.99 214.12,315.41 207.47,313.08 C200.82,310.74 188.82,303.74 184.00,299.38 C176.76,292.84 176.54,295.87 183.24,309.96 C185.88,315.52 189.16,320.41 192.78,324.21 C195.82,327.40 198.08,330.00 197.81,330.00 C196.15,330.00 185.37,325.71 179.00,322.51 C167.67,316.83 156.47,308.58 146.81,298.80 C141.84,293.77 137.84,290.45 137.46,291.06 C137.10,291.64 137.11,295.35 137.49,299.31 C138.90,314.31 142.74,325.72 149.58,335.24 C151.53,337.97 152.93,340.40 152.68,340.65 C152.01,341.32 135.67,334.86 127.10,330.55 C115.66,324.79 104.11,316.72 97.03,309.55 L 90.56 303.00 L 100.03 302.98 C108.81,302.95 116.39,301.94 117.71,300.62 C118.02,300.31 114.80,296.83 110.57,292.87 C101.06,283.99 93.06,274.26 85.66,262.55 C79.86,253.38 79.02,251.41 81.31,252.29 C84.43,253.49 107.04,257.88 112.71,258.40 C119.47,259.01 131.88,257.76 136.52,255.99 L 139.43 254.89 L 135.96 252.23 C131.48,248.79 119.00,236.87 119.00,236.02 C119.00,235.66 122.49,235.98 126.75,236.74 C131.01,237.49 139.68,238.15 146.00,238.20 C158.38,238.31 158.57,238.36 170.00,245.49 C173.02,247.38 176.07,248.94 176.78,248.96 C177.48,248.98 175.43,245.06 172.22,240.25 C148.61,204.83 130.96,161.54 125.44,125.50 C122.87,108.76 123.79,82.30 127.46,67.50 C128.96,61.45 130.55,56.11 131.01,55.63 C131.13,55.51 131.71,55.71 132.63,56.19 C131.39,56.41 132.14,59.58 134.75,64.87 C139.38,74.25 155.65,90.13 179.52,108.54 C204.34,127.70 214.18,136.40 221.99,146.11 C234.37,161.49 241.93,179.29 245.53,201.47 C246.33,206.44 246.99,210.84 247.00,211.25 C247.00,211.66 247.34,212.00 247.76,212.00 C249.03,212.00 258.19,205.52 263.25,201.04 C267.80,197.01 267.97,196.66 267.41,192.67 C267.08,190.32 266.58,187.88 265.92,185.39 C267.30,189.48 268.62,192.91 268.98,193.30 C270.18,194.63 272.00,183.23 272.00,174.37 L 272.00 166.08 L 275.75 165.16 C277.81,164.65 283.55,163.49 288.50,162.57 C293.45,161.66 299.75,160.28 302.50,159.51 C310.06,157.40 323.15,156.20 335.43,156.06 C323.05,156.39 310.00,157.89 310.00,159.13 C310.00,159.61 314.69,160.00 320.41,160.00 C340.89,160.00 354.10,164.30 373.89,177.40 C389.72,187.88 410.74,207.69 423.78,224.42 L 426.06 227.35 L 430.01 223.49 C432.19,221.37 434.14,219.83 434.36,220.06 C434.58,220.30 435.26,222.87 435.87,225.76 C436.49,228.66 437.67,232.67 438.51,234.67 C437.67,232.67 436.50,228.77 435.91,226.01 C435.32,223.26 434.47,221.00 434.02,221.00 C432.05,221.00 422.98,232.48 419.26,239.65 C407.22,262.93 405.32,289.89 414.04,313.73 C418.98,327.22 426.67,339.65 436.33,349.73 C438.55,352.05 440.18,354.12 439.94,354.33 C439.70,354.53 434.07,355.15 427.44,355.71 C417.18,356.58 414.76,357.13 411.22,359.36 C407.16,361.93 404.00,366.34 404.00,369.45 C404.00,371.88 402.28,371.36 389.99,365.24 ZM 396.45 338.25 C395.46,336.74 393.63,333.92 392.36,332.00 C383.08,317.87 376.02,288.19 376.00,263.25 C376.00,260.36 375.62,258.00 375.16,258.00 C374.70,258.00 373.49,260.72 372.49,264.05 C371.48,267.37 370.35,270.28 369.98,270.51 C369.61,270.74 369.04,264.31 368.73,256.22 C368.04,238.51 366.12,229.22 360.88,218.24 C356.46,208.98 348.63,200.17 340.73,195.57 C334.59,191.99 322.79,188.00 318.33,188.00 L 314.84 188.00 L 318.17 191.91 C322.31,196.77 328.47,206.87 327.73,207.60 C327.43,207.90 325.90,207.48 324.33,206.67 C315.95,202.34 298.13,202.05 286.00,206.05 C273.66,210.12 251.98,221.32 253.50,222.84 C253.84,223.18 257.81,223.76 262.31,224.12 C266.82,224.49 271.85,225.32 273.50,225.97 C276.49,227.14 276.46,227.16 267.75,230.43 C256.81,234.55 246.18,240.94 232.30,251.74 C221.27,260.33 209.21,266.89 200.77,268.90 C198.17,269.51 191.96,270.31 186.97,270.66 L 177.89 271.31 L 181.70 275.22 C189.85,283.60 204.23,291.34 218.44,295.01 L 225.50 296.83 L 221.00 298.78 C218.52,299.85 215.60,301.12 214.50,301.60 C211.27,303.02 225.64,303.34 232.00,301.99 C239.05,300.50 250.94,294.71 254.42,291.08 L 257.12 288.27 L 246.31 288.19 C238.66,288.13 233.60,287.54 229.00,286.15 C221.31,283.84 215.34,281.36 214.61,280.18 C214.61,280.18 214.61,280.18 214.61,280.17 C215.50,281.54 227.17,281.11 233.45,279.47 C241.71,277.32 250.35,272.48 266.50,260.97 C284.36,248.24 287.68,246.61 296.00,246.55 C301.14,246.51 303.68,247.08 308.14,249.27 C318.22,254.22 327.30,265.01 339.04,286.00 C356.35,316.93 365.16,326.58 385.99,337.42 C390.67,339.86 394.69,341.64 394.94,341.39 C395.19,341.15 392.38,337.91 388.70,334.20 C385.01,330.49 382.00,327.13 382.00,326.73 C382.00,326.34 380.53,324.09 378.72,321.73 C377.77,320.47 376.63,318.74 375.42,316.74 C379.01,322.21 383.23,327.41 388.15,332.53 C396.27,341.00 399.81,343.43 396.45,338.25 ZM 198.64 229.69 C193.78,219.42 188.78,202.00 190.69,202.00 C191.20,202.00 193.16,203.63 195.05,205.63 C200.20,211.06 209.43,216.71 215.12,217.93 C230.49,221.23 232.21,204.70 219.25,178.26 C215.41,170.44 206.02,155.61 202.27,151.46 C201.29,150.38 199.21,147.93 197.63,146.00 C196.05,144.07 187.84,135.26 179.40,126.41 C170.96,117.56 161.67,107.37 158.77,103.76 C155.87,100.16 152.29,95.70 150.80,93.86 L 148.11 90.50 L 148.07 94.00 C148.04,97.42 149.06,105.46 150.53,113.50 L 151.27 117.50 L 148.64 115.09 C147.20,113.76 144.16,109.82 141.89,106.34 C138.19,100.65 136.00,98.59 136.00,100.78 C136.00,101.21 136.69,107.17 137.54,114.03 C142.88,157.45 158.97,196.42 181.69,220.99 C187.84,227.64 199.66,236.67 200.76,235.57 C201.01,235.33 200.05,232.68 198.64,229.69 ZM 400.87 159.45 C399.96,158.89 399.13,158.42 398.46,158.08 C396.03,156.87 393.76,155.42 393.41,154.85 C392.72,153.74 377.14,145.94 372.10,144.19 C369.44,143.26 368.81,142.29 367.31,136.81 C364.25,125.65 357.42,106.64 356.34,106.28 C355.71,106.07 355.02,108.85 354.62,113.19 C354.25,117.19 353.56,120.84 353.09,121.31 C352.62,121.78 350.80,117.75 349.04,112.33 C345.07,100.12 338.71,84.00 337.87,84.00 C336.57,84.00 336.03,88.85 336.01,100.67 C336.00,115.22 335.30,118.08 333.30,111.86 C327.66,94.35 320.24,75.32 315.82,67.02 C315.02,65.51 314.43,64.19 314.09,63.20 C315.38,64.89 318.41,67.11 321.13,67.92 C334.85,72.03 356.58,84.61 366.07,93.93 C371.67,99.44 373.66,102.38 378.34,112.12 C381.41,118.51 386.30,130.83 389.21,139.50 L 394.50 155.25 ZM 328.73 283.83 C323.53,275.95 317.13,267.12 314.50,264.20 C305.44,254.14 296.90,252.17 285.26,257.44 C276.87,261.24 276.29,262.11 280.27,265.01 C282.05,266.31 286.42,269.93 290.00,273.06 C297.44,279.58 298.69,280.27 313.00,285.88 C318.77,288.15 326.64,291.99 330.49,294.43 C334.33,296.87 337.63,298.70 337.83,298.51 C338.02,298.31 333.92,291.71 328.73,283.83 ZM 441.08 447.75 C440.21,444.05 438.69,440.40 436.46,436.94 C434.56,433.99 433.00,431.17 433.00,430.67 C433.00,430.18 434.69,430.08 436.75,430.46 C442.42,431.47 446.38,431.90 449.65,431.70 C447.84,431.84 445.90,431.83 443.80,431.66 C439.55,431.34 435.84,431.46 435.54,431.93 C435.25,432.41 436.46,435.88 438.23,439.65 C439.84,443.09 440.67,445.19 441.08,447.75 ZM 109.42 370.56 C106.48,371.13 103.84,371.64 102.50,371.90 L 98.50 372.69 L 102.16 374.32 C104.02,375.15 105.81,375.79 107.98,376.31 C106.23,375.96 104.77,375.54 103.25,375.00 C99.81,373.80 97.00,372.41 97.00,371.91 C97.00,371.41 99.69,371.00 102.97,371.00 C105.00,371.00 107.17,370.85 109.42,370.56 ZM 392.32 429.37 C387.54,427.73 380.97,424.91 378.22,423.17 C374.22,420.65 376.65,420.72 383.18,423.33 C384.57,423.89 386.20,424.49 387.82,425.05 C382.97,423.50 379.30,422.68 379.64,423.23 C380.35,424.37 387.20,427.57 392.32,429.37 ZM 256.82 163.27 C250.35,151.39 241.35,139.21 230.59,128.11 C242.14,140.03 250.47,151.10 256.82,163.27 ZM 406.40 180.87 C413.65,185.62 420.38,190.57 425.69,195.21 C427.60,196.88 429.53,198.68 431.40,200.52 C424.36,193.91 415.73,187.12 406.40,180.87 ZM 453.84 431.03 C454.85,430.76 455.83,430.41 456.84,429.97 C463.41,427.15 469.93,420.16 472.94,412.72 C471.45,416.62 469.30,419.91 466.32,423.09 C462.36,427.33 458.48,429.87 453.84,431.03 ZM 437.84 471.01 C434.07,477.94 429.62,482.08 422.17,485.76 C429.19,482.29 434.50,477.08 437.84,471.01 ZM 152.68 379.19 C170.08,380.17 180.40,381.77 188.63,384.78 C180.74,381.91 170.74,380.35 152.68,379.19 ZM 366.20 298.74 C365.78,297.75 365.40,296.80 365.07,295.93 C363.55,291.85 362.11,286.41 360.88,280.30 C362.26,286.95 364.01,293.05 366.20,298.74 ZM 352.19 396.51 C358.85,402.68 367.56,408.58 376.55,413.27 C367.48,408.65 359.12,402.94 352.19,396.51 ZM 408.18 164.58 C407.42,163.96 406.55,163.30 405.64,162.64 C408.83,164.85 411.43,166.81 411.97,167.46 C412.01,167.51 412.05,167.56 412.09,167.60 C411.12,166.92 409.85,165.92 408.18,164.58 ZM 405.08 423.52 L 401.94 422.76 C401.23,422.58 400.52,422.40 399.81,422.22 C400.44,422.36 401.05,422.48 401.66,422.60 L 405.37 423.29 ZM 398.25 428.00 C397.93,428.00 396.76,427.72 395.10,427.25 C398.23,428.00 399.17,427.91 401.26,426.51 C399.99,427.38 398.77,427.99 398.25,428.00 ZM 356.39 157.18 C357.87,157.41 359.20,157.67 360.36,157.96 C364.70,159.07 370.09,161.14 375.98,163.85 C368.28,160.33 362.49,158.29 356.39,157.18 ZM 438.37 470.00 C439.56,467.64 440.47,465.16 441.07,462.62 C440.72,464.71 440.12,466.39 439.11,468.50 C438.87,469.01 438.62,469.51 438.37,470.00 ZM 180.85 88.94 C191.44,96.03 199.71,101.82 206.64,107.06 C199.71,101.82 191.44,96.03 180.85,88.94 C169.16,81.11 154.05,70.72 147.19,65.80 C155.25,71.53 169.85,81.57 180.85,88.94 ZM 327.42 63.96 C320.75,61.89 315.47,60.71 313.98,61.17 C315.43,60.69 320.73,61.88 327.42,63.96 ZM 414.62 168.75 C414.86,168.53 415.00,168.12 415.00,167.51 C415.00,168.18 414.91,168.61 414.62,168.75 Z" fill="rgb(222,103,50)"/>
<path d="M 163.04 513.68 C163.84,512.95 168.77,508.93 174.00,504.73 C183.14,497.39 183.60,496.82 186.20,489.80 C190.92,477.07 192.22,470.82 192.73,458.32 C193.17,447.70 192.95,445.20 191.02,438.82 C188.17,429.37 183.24,421.30 176.75,415.47 C167.23,406.91 157.43,403.43 136.00,401.01 C112.89,398.39 108.02,397.70 100.29,395.92 C80.28,391.32 68.55,381.75 59.05,362.25 C56.06,356.10 53.83,350.84 54.11,350.56 C54.38,350.28 58.81,350.53 63.93,351.10 C69.06,351.67 73.63,351.77 74.07,351.32 C74.52,350.87 71.55,346.67 67.47,342.00 C63.38,337.33 60.03,332.99 60.02,332.37 C60.01,331.73 63.44,330.71 68.02,330.00 C72.43,329.31 76.27,328.37 76.56,327.90 C76.85,327.43 74.59,324.10 71.54,320.50 C68.49,316.91 63.95,310.90 61.46,307.15 C56.35,299.46 46.79,278.87 47.83,277.79 C48.20,277.41 52.56,277.70 57.51,278.44 C62.45,279.19 66.86,279.47 67.29,279.06 C67.73,278.65 65.97,274.75 63.39,270.41 C54.00,254.59 49.36,242.32 46.04,224.50 C44.91,218.45 43.73,212.26 43.41,210.75 C42.58,206.73 44.71,207.16 54.58,212.99 C66.11,219.80 72.64,223.03 73.38,222.29 C73.72,221.95 72.94,219.83 71.65,217.59 C70.35,215.34 67.13,209.50 64.49,204.61 L 59.69 195.73 L 62.59 196.25 C64.19,196.53 72.05,199.04 80.06,201.82 C88.07,204.60 97.75,207.60 101.56,208.49 C115.15,211.67 124.28,213.12 125.14,212.26 C125.64,211.76 124.73,209.01 123.03,205.87 C115.32,191.64 107.32,170.92 103.00,154.00 C92.68,113.52 95.13,68.58 109.61,32.91 C114.64,20.52 123.08,4.00 124.38,4.00 C125.10,4.00 130.15,8.10 135.60,13.11 C147.60,24.15 161.40,34.57 186.25,51.34 C231.59,81.94 251.57,101.36 268.41,131.25 C269.88,133.86 271.61,136.00 272.25,136.00 C275.29,136.00 294.66,130.64 295.91,129.45 C297.09,128.32 297.13,126.74 296.12,119.57 C293.29,99.29 281.72,66.26 267.53,37.89 C262.81,28.45 259.15,20.52 259.40,20.26 C259.66,20.01 268.33,21.46 278.68,23.49 C342.15,35.93 382.38,52.09 404.66,74.09 C415.04,84.33 419.67,93.36 430.02,123.59 C434.86,137.72 444.98,175.40 444.99,179.33 C445.00,180.34 447.94,183.90 451.53,187.25 C461.91,196.92 471.24,210.82 474.86,222.00 C476.89,228.27 477.82,239.62 476.95,247.39 C476.07,255.27 474.48,260.79 470.48,270.00 C469.16,273.02 467.44,279.33 466.67,284.00 C465.70,289.83 463.85,295.48 460.77,302.00 C458.31,307.23 456.00,312.35 455.63,313.38 C455.00,315.16 452.00,333.84 452.00,335.99 C452.00,338.44 459.93,345.50 465.50,348.00 C476.75,353.06 481.93,359.70 481.98,369.12 C482.00,374.09 479.82,381.43 477.56,383.95 C476.63,384.99 476.05,388.95 475.78,396.00 C475.49,403.96 474.82,407.94 473.05,412.45 C470.08,419.99 463.49,427.11 456.84,429.97 C451.68,432.19 447.02,432.30 436.75,430.46 C434.69,430.08 433.00,430.18 433.00,430.67 C433.00,431.17 434.56,433.99 436.46,436.94 C447.62,454.26 441.14,476.38 422.17,485.76 C414.78,489.41 414.34,489.50 403.55,489.46 C387.06,489.40 375.76,485.56 352.61,472.15 C347.72,469.32 343.15,467.00 342.47,467.00 C338.88,467.00 335.53,487.00 337.90,494.21 C338.79,496.90 341.57,499.72 349.53,506.03 C355.29,510.59 360.00,514.47 360.00,514.66 C360.00,514.85 315.35,515.00 260.79,515.00 C178.54,515.00 161.82,514.77 163.04,513.68 ZM 210.19 486.00 C216.53,477.73 222.37,465.53 224.41,456.30 C230.29,429.68 217.86,399.86 195.96,388.09 C184.06,381.68 170.82,379.58 135.50,378.46 C113.80,377.77 108.41,377.10 102.16,374.32 L 98.50 372.69 L 102.50 371.90 C104.70,371.47 110.39,370.37 115.14,369.45 C120.32,368.46 126.73,366.33 131.11,364.14 C137.97,360.74 140.94,358.00 137.80,358.00 C134.13,358.00 112.02,347.46 110.49,344.99 C110.11,344.37 112.80,344.00 117.69,344.01 C125.75,344.02 128.24,344.63 148.00,351.48 C154.47,353.73 163.49,355.87 171.50,357.06 C184.83,359.04 199.00,359.63 199.00,358.20 C199.00,357.76 195.96,356.41 192.25,355.21 C175.70,349.87 161.17,337.59 153.14,322.15 C150.76,317.58 149.08,313.58 149.40,313.26 C149.73,312.94 152.15,314.50 154.79,316.73 C169.18,328.86 187.21,337.35 206.00,340.85 C214.22,342.38 228.71,343.28 229.32,342.30 C229.61,341.82 227.30,340.11 224.17,338.50 C218.69,335.66 203.06,321.61 204.15,320.51 C204.45,320.22 206.72,320.87 209.19,321.97 C223.08,328.11 240.80,328.42 269.00,323.01 C281.69,320.58 287.17,319.96 292.75,320.34 C300.23,320.86 300.88,320.51 298.96,316.93 C297.66,314.49 298.94,314.41 303.30,316.64 C313.83,322.06 323.12,330.41 334.82,345.00 C342.68,354.79 352.14,363.97 358.98,368.43 C366.16,373.11 367.99,373.05 364.24,368.25 C362.62,366.19 360.45,363.17 359.41,361.55 C357.66,358.84 357.65,358.65 359.26,359.27 C360.22,359.64 363.37,361.71 366.25,363.88 C373.35,369.21 390.94,378.39 401.15,382.09 C421.17,389.35 435.00,398.34 435.00,404.11 C435.00,407.59 432.51,410.69 427.68,413.21 C424.18,415.04 421.97,415.38 414.00,415.28 C401.92,415.14 391.88,412.08 379.55,404.78 C369.94,399.09 353.31,383.36 326.24,354.34 C312.99,340.14 304.15,333.03 297.18,330.96 C267.64,322.20 239.41,346.74 244.90,376.42 C247.49,390.45 255.86,401.31 269.27,408.01 C273.64,410.20 277.65,411.71 278.20,411.38 C278.74,411.04 277.37,408.91 275.16,406.63 C272.94,404.36 270.03,400.25 268.67,397.50 C266.07,392.21 264.37,386.00 265.53,386.00 C265.91,386.00 268.76,388.32 271.86,391.17 C286.92,404.96 297.06,409.59 324.00,414.98 C345.29,419.24 355.88,423.51 368.50,432.92 C381.70,442.76 396.75,450.00 404.02,450.00 C408.36,450.00 412.86,447.41 413.59,444.48 C414.97,439.01 418.00,443.35 418.00,450.79 C418.00,457.47 415.03,461.67 408.50,464.24 C398.97,467.97 390.91,465.66 371.88,453.72 C347.84,438.64 334.87,433.84 318.14,433.84 C312.84,433.84 306.02,434.33 303.00,434.94 C296.24,436.29 289.00,438.97 289.00,440.14 C289.00,440.61 292.80,441.00 297.45,441.00 C302.10,441.00 308.20,441.49 311.01,442.10 L 316.12 443.19 L 315.31 448.85 C314.01,457.93 314.35,476.95 315.91,482.50 C318.26,490.85 325.42,503.00 327.99,503.00 C328.44,503.00 328.17,500.90 327.40,498.34 C325.74,492.82 325.57,481.08 327.06,474.15 C328.49,467.46 336.05,452.59 338.22,452.19 C339.16,452.01 346.73,455.76 355.03,460.52 C373.63,471.18 378.56,473.46 388.50,476.00 C409.67,481.41 425.37,475.87 429.54,461.50 C431.46,454.91 430.86,449.68 427.39,442.80 C424.93,437.94 419.29,431.55 415.08,428.89 L 412.66 427.36 L 415.37 424.32 C417.74,421.67 418.96,421.20 424.98,420.64 C428.77,420.29 433.11,419.53 434.62,418.95 C436.59,418.21 438.17,418.24 440.19,419.08 C441.75,419.73 445.47,420.04 448.53,419.79 C454.82,419.27 458.72,416.35 462.22,409.53 C464.83,404.47 465.67,394.45 463.99,388.47 C462.74,383.99 462.77,383.83 465.74,380.70 C469.76,376.45 471.00,373.84 471.00,369.64 C471.00,364.87 467.15,360.54 461.13,358.54 C457.81,357.44 453.89,354.71 448.52,349.77 L 440.73 342.59 L 441.40 333.08 C442.44,318.30 444.65,309.59 450.30,298.00 C454.71,288.95 455.50,286.40 456.04,279.50 C456.54,273.16 457.31,270.36 459.76,266.00 C461.46,262.98 463.55,257.74 464.42,254.36 C466.37,246.77 466.45,233.05 464.58,226.90 C461.11,215.45 453.25,203.93 442.11,193.96 L 435.28 187.84 L 433.60 179.17 C428.37,152.25 416.79,115.59 407.66,97.04 C401.85,85.25 392.65,76.33 376.24,66.56 C358.77,56.17 326.88,45.20 293.30,38.03 C277.73,34.70 278.14,34.00 285.70,51.00 C299.62,82.27 308.80,116.70 307.81,133.92 L 307.50 139.33 L 295.50 142.11 C288.90,143.63 279.71,145.99 275.07,147.34 C270.44,148.69 266.16,149.59 265.57,149.33 C264.98,149.07 262.96,145.65 261.09,141.73 C254.60,128.18 244.33,114.24 231.05,100.95 C216.87,86.78 207.10,79.12 177.30,58.86 C154.35,43.24 146.08,37.19 135.26,28.09 C131.28,24.74 127.63,22.00 127.16,22.00 C126.15,22.00 120.96,32.99 117.92,41.54 C106.63,73.38 104.54,106.02 111.52,141.82 C116.74,168.64 130.68,201.14 146.65,223.75 L 148.24 226.00 L 140.68 226.00 C131.61,226.00 107.09,221.97 94.21,218.36 C89.09,216.93 84.64,216.03 84.31,216.36 C83.13,217.53 89.43,225.64 98.99,235.24 C104.32,240.60 108.50,245.17 108.27,245.39 C106.86,246.80 75.77,236.82 64.78,231.42 C61.63,229.87 58.77,228.90 58.41,229.26 C57.35,230.32 62.80,245.88 67.51,255.23 C72.24,264.62 79.49,275.81 87.19,285.63 C89.84,289.01 92.00,292.11 92.00,292.52 C92.00,293.24 79.81,292.59 69.75,291.34 C66.85,290.97 65.00,291.13 65.00,291.74 C65.00,292.29 67.31,296.29 70.13,300.62 C75.97,309.60 87.57,321.49 96.75,327.92 C100.19,330.32 103.00,332.66 103.00,333.11 C103.00,334.04 95.44,336.42 86.84,338.19 C83.63,338.86 81.00,339.74 81.00,340.15 C81.00,342.47 94.11,349.70 107.00,354.49 C111.12,356.02 114.89,357.62 115.37,358.06 C118.08,360.50 91.80,364.58 79.75,363.59 C74.99,363.20 72.00,363.33 72.00,363.92 C72.00,364.45 74.51,367.59 77.57,370.90 C86.13,380.15 100.19,385.72 119.50,387.52 C135.81,389.05 155.74,392.27 162.85,394.53 C180.95,400.27 193.98,413.67 201.24,434.00 C202.64,437.90 203.35,443.12 203.70,452.00 C204.28,466.69 202.39,477.81 196.77,492.73 C194.86,497.81 193.54,502.21 193.84,502.51 C194.67,503.33 204.56,493.34 210.19,486.00 ZM 391.39 439.09 C383.92,436.40 378.43,432.90 370.00,425.44 C365.88,421.79 360.64,417.71 358.36,416.38 C351.90,412.57 339.44,408.38 326.42,405.62 C309.28,402.00 301.75,398.97 290.00,390.99 C284.36,387.15 274.00,376.89 274.00,375.14 C274.00,373.66 282.12,367.01 284.74,366.35 C286.42,365.93 288.42,366.84 292.26,369.79 C300.37,376.01 312.24,384.00 313.38,384.00 C313.94,384.00 310.30,380.18 305.30,375.51 C300.30,370.84 294.86,364.99 293.21,362.50 C290.52,358.44 290.31,357.57 291.13,353.90 C292.59,347.42 294.76,343.00 296.49,343.00 C302.43,343.00 319.28,358.31 336.77,379.58 C341.78,385.68 348.72,393.30 352.19,396.51 C365.30,408.66 383.52,418.27 401.94,422.76 L 405.38 423.60 L 402.14 425.90 C399.15,428.03 398.52,428.12 394.20,427.03 C391.61,426.38 386.66,424.72 383.18,423.33 C376.65,420.72 374.22,420.65 378.22,423.17 C381.93,425.51 392.58,429.83 396.44,430.56 C400.63,431.34 400.56,431.26 401.47,436.75 C402.16,440.92 402.12,441.00 399.34,440.96 C397.78,440.94 394.20,440.10 391.39,439.09 ZM 443.37 409.75 C443.70,408.51 443.98,406.33 443.99,404.89 C444.00,402.91 445.31,401.31 449.54,398.14 C452.59,395.86 455.29,394.00 455.54,394.00 C456.81,394.00 455.75,401.57 453.99,405.02 C451.00,410.89 441.99,414.90 443.37,409.75 ZM 449.00 385.41 C449.00,384.95 449.70,382.73 450.56,380.49 C454.02,371.41 448.99,367.95 431.25,367.21 C425.06,366.96 420.00,366.37 420.00,365.91 C420.00,362.56 450.81,362.04 458.25,365.27 C461.38,366.63 462.00,367.39 462.00,369.87 C462.00,371.69 460.74,374.48 458.75,377.07 C455.39,381.43 449.00,386.90 449.00,385.41 ZM 385.99 337.42 C365.16,326.58 356.35,316.93 339.04,286.00 C327.30,265.01 318.22,254.22 308.14,249.27 C303.68,247.08 301.14,246.51 296.00,246.55 C287.68,246.61 284.36,248.24 266.50,260.97 C250.35,272.48 241.71,277.32 233.45,279.47 C227.16,281.11 215.45,281.54 214.60,280.17 C214.32,279.71 216.43,278.36 219.29,277.17 C222.16,275.98 227.88,272.09 232.00,268.54 C243.20,258.89 254.32,251.66 268.12,245.08 C279.96,239.43 295.90,234.00 300.65,234.00 C304.72,234.00 304.13,232.11 299.29,229.62 L 294.50 227.17 L 297.31 226.09 C298.85,225.49 301.89,224.72 304.06,224.37 C310.52,223.34 309.43,222.33 295.50,216.40 C292.18,214.98 303.66,214.70 310.46,216.02 C323.30,218.53 333.05,226.10 339.86,238.89 C341.65,242.25 343.54,245.00 344.06,245.00 C344.60,245.00 345.00,239.65 345.00,232.50 C345.00,225.62 345.39,220.00 345.88,220.00 C346.36,220.00 348.40,223.14 350.42,226.98 C354.53,234.79 356.27,242.53 357.99,260.50 C359.29,274.14 362.02,287.76 365.07,295.93 C367.97,303.67 374.81,316.60 378.72,321.73 C380.53,324.09 382.00,326.34 382.00,326.73 C382.00,327.13 385.01,330.49 388.70,334.20 C392.38,337.91 395.19,341.15 394.94,341.39 C394.69,341.64 390.67,339.86 385.99,337.42 ZM 424.71 319.25 C419.54,307.63 418.53,301.81 418.53,283.50 C418.53,270.09 418.92,265.13 420.35,260.00 C422.68,251.70 428.05,237.72 428.67,238.34 C428.93,238.60 429.83,242.12 430.67,246.16 C431.50,250.20 432.84,255.07 433.64,256.99 L 435.10 260.48 L 437.87 255.41 C441.50,248.77 445.69,243.33 447.79,242.53 C448.90,242.10 450.13,242.68 451.36,244.19 C452.92,246.11 453.14,247.56 452.66,252.73 C451.73,262.69 448.05,269.09 436.97,280.00 C426.30,290.50 424.47,293.00 423.46,298.35 C422.82,301.75 422.94,302.00 425.26,302.00 C426.63,302.00 429.68,301.32 432.03,300.49 C434.39,299.66 436.43,299.10 436.58,299.24 C436.72,299.39 435.27,302.77 433.35,306.75 C431.28,311.04 429.62,316.24 429.29,319.50 C428.98,322.52 428.39,325.00 428.00,325.00 C427.60,325.00 426.12,322.41 424.71,319.25 ZM 438.51 234.67 C437.67,232.67 436.49,228.66 435.87,225.76 C435.26,222.87 434.58,220.30 434.36,220.06 C434.14,219.83 432.19,221.37 430.01,223.49 L 426.06 227.35 L 423.78 224.42 C410.74,207.69 389.72,187.88 373.89,177.40 C354.10,164.30 340.89,160.00 320.41,160.00 C314.69,160.00 310.00,159.61 310.00,159.13 C310.00,157.73 326.63,156.00 340.16,156.00 C356.26,156.00 363.93,157.93 381.27,166.35 C409.72,180.17 438.59,203.44 447.03,219.34 L 449.35 223.73 L 444.69 231.02 L 440.03 238.31 L 438.51 234.67 ZM 247.00 211.25 C246.99,210.84 246.33,206.44 245.53,201.47 C241.93,179.29 234.37,161.49 221.99,146.11 C214.18,136.40 204.34,127.70 179.52,108.54 C155.65,90.13 139.38,74.25 134.75,64.87 C131.73,58.76 131.20,55.48 133.36,56.31 C134.11,56.59 140.29,60.84 147.11,65.74 C153.92,70.64 169.11,81.08 180.85,88.94 C206.29,105.98 218.36,115.48 230.59,128.11 C250.71,148.88 264.70,173.41 267.41,192.67 C267.97,196.66 267.80,197.01 263.25,201.04 C258.19,205.52 249.03,212.00 247.76,212.00 C247.34,212.00 247.00,211.66 247.00,211.25 ZM 411.97 167.46 C411.27,166.62 407.05,163.52 402.60,160.59 L 394.50 155.25 L 389.21 139.50 C386.30,130.83 381.41,118.51 378.34,112.12 C373.66,102.38 371.67,99.44 366.07,93.93 C356.58,84.61 334.85,72.03 321.13,67.92 C316.87,66.64 311.81,61.90 313.96,61.18 C317.27,60.08 340.25,67.57 354.64,74.45 C380.00,86.57 389.32,95.78 399.24,118.50 C405.10,131.94 415.00,162.71 415.00,167.51 C415.00,169.44 413.59,169.41 411.97,167.46 Z" fill="#fff"/>
</g>
</svg>