<svg xmlns="http://www.w3.org/2000/svg" width="627" height="203" viewBox="0 0 627 203">
<g>
<path d="M 96.65 191.77 C95.50,193.61 23.15,193.55 22.44,191.70 C22.16,190.99 23.05,184.12 24.41,176.45 C25.76,168.78 29.60,146.98 32.93,128.00 C39.14,92.63 41.77,77.96 42.49,74.57 C42.76,73.33 39.01,66.84 31.95,56.34 C25.93,47.37 21.00,39.80 21.00,39.52 C21.00,39.23 26.82,39.00 33.94,39.00 C41.06,39.00 47.14,38.59 47.45,38.08 C47.76,37.58 46.17,34.39 43.92,31.00 C41.67,27.61 40.09,24.58 40.41,24.26 C41.09,23.58 343.26,23.17 368.14,23.82 L 385.10 24.26 L 388.35 30.71 L 391.60 37.15 L 395.56 32.83 C397.74,30.45 400.49,27.24 401.69,25.71 L 403.85 22.92 L 452.68 23.03 C504.52,23.15 516.97,23.61 517.05,25.40 C517.08,26.00 518.33,29.19 519.85,32.47 L 522.59 38.44 L 527.98 31.22 C532.14,25.63 533.94,23.98 535.93,23.93 C556.77,23.36 617.45,24.05 617.27,24.85 C617.08,25.73 592.89,57.67 559.45,101.21 C553.66,108.74 548.52,116.17 548.02,117.71 C547.51,119.24 545.00,132.65 542.42,147.50 C539.85,162.35 537.31,175.04 536.78,175.71 C536.24,176.39 532.73,177.04 528.68,177.21 L 521.54 177.50 L 520.02 184.22 C519.18,187.91 518.02,191.40 517.44,191.98 C516.73,192.68 504.44,192.94 480.44,192.76 L 444.50 192.50 L 444.56 189.00 C444.59,187.07 444.82,183.70 445.06,181.50 L 445.50 177.50 L 440.25 177.20 C436.97,177.01 435.00,177.30 435.00,177.98 C435.00,178.57 436.38,181.80 438.08,185.15 C439.87,188.71 440.78,191.62 440.26,192.14 C439.77,192.63 422.42,192.91 400.94,192.76 L 362.50 192.50 L 359.27 185.75 C357.50,182.04 355.45,179.00 354.72,179.00 C354.00,179.00 350.81,182.15 347.64,186.00 L 341.88 193.00 L 171.47 193.00 L 156.58 178.08 L 141.69 163.16 L 143.00 154.03 C143.86,148.02 143.97,144.57 143.32,143.92 C142.75,143.35 137.86,143.05 131.92,143.21 L 121.52 143.50 L 118.78 158.98 C117.27,167.49 115.83,175.01 115.57,175.69 C115.26,176.47 112.30,177.02 107.32,177.21 L 99.54 177.50 L 98.47 184.02 C97.89,187.60 97.06,191.09 96.65,191.77 ZM 199.56 156.98 C202.89,158.01 296.47,157.87 297.51,156.83 C297.87,156.46 299.72,147.46 301.61,136.83 C312.59,75.07 315.00,61.28 315.00,60.30 C315.00,59.70 311.31,55.56 306.80,51.10 L 298.60 43.00 L 244.80 43.00 C215.21,43.00 191.00,43.26 191.00,43.57 C191.00,43.88 192.31,46.04 193.90,48.36 C195.76,51.05 196.66,53.46 196.41,55.04 C196.19,56.39 192.86,75.39 189.01,97.26 C185.15,119.13 182.00,138.04 182.00,139.29 C182.00,142.17 195.43,155.70 199.56,156.98 ZM 324.00 157.14 C327.02,157.49 334.31,157.71 340.18,157.62 C340.96,157.61 341.67,157.61 342.34,157.60 C345.88,157.57 348.12,157.56 350.11,156.85 C353.91,155.50 356.82,151.64 366.19,140.39 C371.86,133.59 377.01,128.01 377.63,128.01 C378.25,128.00 381.98,134.50 385.93,142.44 L 393.11 156.87 L 398.70 157.57 C404.37,158.28 426.67,157.66 427.56,156.78 C427.82,156.51 421.96,144.06 414.52,129.11 C407.08,114.16 401.00,101.29 401.00,100.50 C401.00,99.71 407.43,91.51 415.28,82.28 C441.91,50.98 447.00,44.82 447.00,43.91 C447.00,43.40 439.57,43.00 430.08,43.00 L 413.17 43.00 L 401.64 56.83 C395.31,64.43 389.43,71.23 388.58,71.93 C387.25,73.04 386.12,71.31 380.02,58.90 C376.15,51.03 372.62,44.22 372.17,43.77 C371.72,43.32 361.95,43.08 350.45,43.23 L 329.55 43.50 L 335.68 48.00 L 341.81 52.50 L 353.55 76.25 L 365.30 100.01 L 360.33 105.75 C357.61,108.91 350.37,117.46 344.25,124.75 C338.12,132.04 329.89,141.79 325.96,146.42 C322.02,151.04 318.73,155.20 318.65,155.66 C318.57,156.12 320.98,156.79 324.00,157.14 ZM 66.75 157.22 C71.33,157.81 97.79,157.54 98.43,156.90 C98.76,156.58 100.93,145.55 103.26,132.40 L 107.50 108.50 L 159.41 107.50 L 161.13 99.00 C162.08,94.32 162.89,90.16 162.93,89.75 C162.97,89.34 151.55,89.00 137.56,89.00 C123.57,89.00 111.93,88.66 111.71,88.25 C111.48,87.84 112.25,81.88 113.42,75.00 L 115.55 62.50 L 145.69 62.24 L 175.84 61.97 L 176.84 57.24 C177.39,54.63 178.15,50.36 178.53,47.75 L 179.23 43.00 L 75.97 43.00 L 78.49 46.75 C79.88,48.81 81.28,51.05 81.60,51.72 C82.23,53.02 77.48,81.16 67.04,138.08 C65.37,147.20 64.00,155.16 64.00,155.76 C64.00,156.37 65.24,157.03 66.75,157.22 ZM 488.25 157.35 C492.18,158.20 518.96,157.44 519.95,156.45 C520.47,155.93 521.58,151.67 522.40,147.00 C523.22,142.32 525.08,131.75 526.53,123.51 L 529.17 108.52 L 538.26 96.51 C543.27,89.90 550.96,79.78 555.36,74.00 C559.76,68.22 564.22,62.38 565.25,61.00 C566.29,59.62 569.58,55.36 572.57,51.53 C575.56,47.69 578.00,44.20 578.00,43.78 C578.00,43.35 570.37,43.00 561.04,43.00 L 544.09 43.00 L 541.54 46.25 C540.15,48.04 534.22,55.72 528.38,63.33 C522.37,71.16 517.38,76.78 516.89,76.29 C516.42,75.82 513.72,69.82 510.91,62.96 C508.10,56.11 505.10,48.81 504.24,46.75 L 502.70 43.00 L 481.85 43.00 C470.38,43.00 461.03,43.34 461.06,43.75 C461.09,44.16 463.32,46.18 466.03,48.24 C468.73,50.30 471.58,53.22 472.35,54.74 C473.13,56.26 478.38,68.89 484.01,82.81 L 494.26 108.11 L 490.13 131.49 C487.86,144.35 486.00,155.31 486.00,155.86 C486.00,156.41 487.01,157.08 488.25,157.35 ZM 266.14 137.00 C265.42,138.27 261.65,138.50 242.05,138.50 C224.02,138.50 218.66,138.21 218.09,137.20 C217.69,136.48 218.41,129.96 219.68,122.70 C220.96,115.44 223.37,101.62 225.03,92.00 C230.13,62.59 230.02,63.03 232.38,62.45 C233.55,62.17 244.40,62.06 256.50,62.22 L 278.50 62.50 L 278.82 64.78 C279.00,66.03 278.44,70.76 277.57,75.28 C276.71,79.80 273.97,95.20 271.50,109.50 C269.02,123.80 266.61,136.18 266.14,137.00 ZM 436.62 129.07 C446.75,149.47 449.41,154.10 450.07,152.50 C450.53,151.40 451.85,144.94 453.01,138.15 L 455.12 125.81 L 447.31 106.42 C443.02,95.76 438.97,87.03 438.32,87.02 C437.18,87.00 424.00,101.70 424.00,102.99 C424.00,103.35 429.68,115.08 436.62,129.07 Z" fill="#fff"/>
<path d="M 417.88 157.67 C422.02,157.46 425.22,157.11 425.63,156.70 C426.91,155.43 423.11,146.35 411.84,123.76 C405.88,111.80 401.00,101.35 401.00,100.54 C401.00,100.54 401.00,100.53 401.00,100.52 C401.10,101.50 407.14,114.29 414.52,129.11 C421.96,144.06 427.82,156.51 427.56,156.78 C427.18,157.15 423.01,157.48 417.88,157.67 ZM 399.56 157.66 C399.24,157.63 398.96,157.60 398.70,157.57 L 398.56 157.55 C398.86,157.59 399.20,157.62 399.56,157.66 Z" fill="rgb(103,73,56)"/>
<path d="M 199.56 156.98 C195.43,155.70 182.00,142.17 182.00,139.29 C182.00,138.04 185.15,119.13 189.01,97.26 C192.86,75.39 196.19,56.39 196.41,55.04 C196.66,53.46 195.76,51.05 193.90,48.36 C192.31,46.04 191.00,43.88 191.00,43.57 C191.00,43.26 215.21,43.00 244.80,43.00 L 298.60 43.00 L 306.80 51.10 C311.31,55.56 315.00,59.70 315.00,60.30 C315.00,61.28 312.59,75.07 301.61,136.83 C299.72,147.46 297.87,156.46 297.51,156.83 C296.47,157.87 202.89,158.01 199.56,156.98 ZM 324.00 157.14 C320.98,156.79 318.57,156.12 318.65,155.66 C318.73,155.20 322.02,151.04 325.96,146.42 C329.89,141.79 338.12,132.04 344.25,124.75 C350.37,117.46 357.61,108.91 360.33,105.75 L 365.30 100.01 L 353.55 76.25 L 341.81 52.50 L 335.68 48.00 L 329.55 43.50 L 350.45 43.23 C361.95,43.08 371.72,43.32 372.17,43.77 C372.62,44.22 376.15,51.03 380.02,58.90 C386.12,71.31 387.25,73.04 388.58,71.93 C389.43,71.23 395.31,64.43 401.64,56.83 L 413.17 43.00 L 430.08 43.00 C439.57,43.00 447.00,43.40 447.00,43.91 C447.00,44.82 441.91,50.98 415.28,82.28 C407.43,91.51 401.00,99.71 401.00,100.50 C401.00,100.51 401.00,100.51 401.00,100.52 C401.00,100.53 401.00,100.54 401.00,100.54 C401.00,101.35 405.88,111.80 411.84,123.76 C423.11,146.35 426.91,155.43 425.63,156.70 C425.22,157.11 422.02,157.46 417.88,157.67 C411.38,157.92 403.34,157.97 399.56,157.66 L 399.56 157.66 C399.20,157.62 398.86,157.59 398.56,157.55 L 393.11 156.87 L 385.93 142.44 C381.98,134.50 378.25,128.00 377.63,128.01 C377.01,128.01 371.86,133.59 366.19,140.39 C356.82,151.64 353.91,155.50 350.11,156.85 C348.12,157.56 345.88,157.57 342.34,157.60 C341.67,157.61 340.96,157.61 340.18,157.62 C334.31,157.71 327.02,157.49 324.00,157.14 ZM 66.75 157.22 C65.24,157.03 64.00,156.37 64.00,155.76 C64.00,155.16 65.37,147.20 67.04,138.08 C77.48,81.16 82.23,53.02 81.60,51.72 C81.28,51.05 79.88,48.81 78.49,46.75 L 75.97 43.00 L 179.23 43.00 L 178.53 47.75 C178.15,50.36 177.39,54.63 176.84,57.24 L 175.84 61.97 L 145.69 62.24 L 115.55 62.50 L 113.42 75.00 C112.25,81.88 111.48,87.84 111.71,88.25 C111.93,88.66 123.57,89.00 137.56,89.00 C151.55,89.00 162.97,89.34 162.93,89.75 C162.89,90.16 162.08,94.32 161.13,99.00 L 159.41 107.50 L 107.50 108.50 L 103.26 132.40 C100.93,145.55 98.76,156.58 98.43,156.90 C97.79,157.54 71.33,157.81 66.75,157.22 ZM 488.25 157.35 C487.01,157.08 486.00,156.41 486.00,155.86 C486.00,155.31 487.86,144.35 490.13,131.49 L 494.26 108.11 L 484.01 82.81 C478.38,68.89 473.13,56.26 472.35,54.74 C471.58,53.22 468.73,50.30 466.03,48.24 C463.32,46.18 461.09,44.16 461.06,43.75 C461.03,43.34 470.38,43.00 481.85,43.00 L 502.70 43.00 L 504.24 46.75 C505.10,48.81 508.10,56.11 510.91,62.96 C513.72,69.82 516.42,75.82 516.89,76.29 C517.38,76.78 522.37,71.16 528.38,63.33 C534.22,55.72 540.15,48.04 541.54,46.25 L 544.09 43.00 L 561.04 43.00 C570.37,43.00 578.00,43.35 578.00,43.78 C578.00,44.20 575.56,47.69 572.57,51.53 C569.58,55.36 566.29,59.62 565.25,61.00 C564.22,62.38 559.76,68.22 555.36,74.00 C550.96,79.78 543.27,89.90 538.26,96.51 L 529.17 108.52 L 526.53 123.51 C525.08,131.75 523.22,142.32 522.40,147.00 C521.58,151.67 520.47,155.93 519.95,156.45 C518.96,157.44 492.18,158.20 488.25,157.35 ZM 266.14 137.00 C266.61,136.18 269.02,123.80 271.50,109.50 C273.97,95.20 276.71,79.80 277.57,75.28 C278.44,70.76 279.00,66.03 278.82,64.78 L 278.50 62.50 L 256.50 62.22 C244.40,62.06 233.55,62.17 232.38,62.45 C230.02,63.03 230.13,62.59 225.03,92.00 C223.37,101.62 220.96,115.44 219.68,122.70 C218.41,129.96 217.69,136.48 218.09,137.20 C218.66,138.21 224.02,138.50 242.05,138.50 C261.65,138.50 265.42,138.27 266.14,137.00 Z" fill="#ff6900"/>
<path d="M 0.00 101.50 L 0.00 0.00 L 313.50 0.00 L 627.00 0.00 L 627.00 101.50 L 627.00 203.00 L 313.50 203.00 L 0.00 203.00 L 0.00 101.50 ZM 96.65 191.77 C97.06,191.09 97.89,187.60 98.47,184.02 L 99.54 177.50 L 107.32 177.21 C112.30,177.02 115.26,176.47 115.57,175.69 C115.83,175.01 117.27,167.49 118.78,158.98 L 121.52 143.50 L 131.92 143.21 C137.86,143.05 142.75,143.35 143.32,143.92 C143.97,144.57 143.86,148.02 143.00,154.03 L 141.69 163.16 L 156.58 178.08 L 171.47 193.00 L 256.68 193.00 L 341.88 193.00 L 347.64 186.00 C350.81,182.15 354.00,179.00 354.72,179.00 C355.45,179.00 357.50,182.04 359.27,185.75 L 362.50 192.50 L 400.94 192.76 C422.42,192.91 439.77,192.63 440.26,192.14 C440.78,191.62 439.87,188.71 438.08,185.15 C436.38,181.80 435.00,178.57 435.00,177.98 C435.00,177.30 436.97,177.01 440.25,177.20 L 445.50 177.50 L 445.06 181.50 C444.82,183.70 444.59,187.07 444.56,189.00 L 444.50 192.50 L 480.44 192.76 C504.44,192.94 516.73,192.68 517.44,191.98 C518.02,191.40 519.18,187.91 520.02,184.22 L 521.54 177.50 L 528.68 177.21 C532.73,177.04 536.24,176.39 536.78,175.71 C537.31,175.04 539.85,162.35 542.42,147.50 C545.00,132.65 547.51,119.24 548.02,117.71 C548.52,116.17 553.66,108.74 559.45,101.21 C592.89,57.67 617.08,25.73 617.27,24.85 C617.45,24.05 556.77,23.36 535.93,23.93 C533.94,23.98 532.14,25.63 527.98,31.22 L 522.59 38.44 L 519.85 32.47 C518.33,29.19 517.08,26.00 517.05,25.40 C516.97,23.61 504.52,23.15 452.68,23.03 L 403.85 22.92 L 401.69 25.71 C400.49,27.24 397.74,30.45 395.56,32.83 L 391.60 37.15 L 388.35 30.71 L 385.10 24.26 L 368.14 23.82 C343.26,23.17 41.09,23.58 40.41,24.26 C40.09,24.58 41.67,27.61 43.92,31.00 C46.17,34.39 47.76,37.58 47.45,38.08 C47.14,38.59 41.06,39.00 33.94,39.00 C26.82,39.00 21.00,39.23 21.00,39.52 C21.00,39.80 25.93,47.37 31.95,56.34 C39.01,66.84 42.76,73.33 42.49,74.57 C41.77,77.96 39.14,92.63 32.93,128.00 C29.60,146.98 25.76,168.78 24.41,176.45 C23.05,184.12 22.16,190.99 22.44,191.70 C23.15,193.55 95.50,193.61 96.65,191.77 ZM 436.62 129.07 C429.68,115.08 424.00,103.35 424.00,102.99 C424.00,101.70 437.18,87.00 438.32,87.02 C438.97,87.03 443.02,95.76 447.31,106.42 L 455.12 125.81 L 453.01 138.15 C451.85,144.94 450.53,151.40 450.07,152.50 C449.41,154.10 446.75,149.47 436.62,129.07 Z" fill="none"/>
</g>
</svg>